<svg xmlns="http://www.w3.org/2000/svg" width="512" height="512" viewBox="0 0 512 512" role="img" aria-label="Sitemap">
  <defs>
    <clipPath id="sitemap-icon">
      <!-- Bootstrap Icons diagram-3-fill, MIT License. -->
      <path fill-rule="evenodd" d="M6 3.5A1.5 1.5 0 0 1 7.5 2h1A1.5 1.5 0 0 1 10 3.5v1A1.5 1.5 0 0 1 8.5 6v1H14a.5.5 0 0 1 .5.5v1a.5.5 0 0 1-1 0V8h-5v.5a.5.5 0 0 1-1 0V8h-5v.5a.5.5 0 0 1-1 0v-1A.5.5 0 0 1 2 7h5.5V6A1.5 1.5 0 0 1 6 4.5zm-6 8A1.5 1.5 0 0 1 1.5 10h1A1.5 1.5 0 0 1 4 11.5v1A1.5 1.5 0 0 1 2.5 14h-1A1.5 1.5 0 0 1 0 12.5zm6 0A1.5 1.5 0 0 1 7.5 10h1a1.5 1.5 0 0 1 1.5 1.5v1A1.5 1.5 0 0 1 8.5 14h-1A1.5 1.5 0 0 1 6 12.5zm6 0a1.5 1.5 0 0 1 1.5-1.5h1a1.5 1.5 0 0 1 1.5 1.5v1a1.5 1.5 0 0 1-1.5 1.5h-1a1.5 1.5 0 0 1-1.5-1.5z"/>
    </clipPath>
  </defs>
  <g transform="translate(80 80) scale(22)" clip-path="url(#sitemap-icon)">
    <rect width="16" height="16" fill="#10B981"/>
    <rect y="6" width="16" height="4" fill="#14B8A6"/>
    <rect y="10" width="5.4" height="6" fill="#22C55E"/>
    <rect x="5.4" y="10" width="5.2" height="6" fill="#0EA5E9"/>
    <rect x="10.6" y="10" width="5.4" height="6" fill="#059669"/>
  </g>
</svg>
